<?xml version="1.0" encoding="UTF-8" standalone="no"?>
<svg
   xmlns:dc="http://purl.org/dc/elements/1.1/"
   xmlns:cc="http://creativecommons.org/ns#"
   xmlns:rdf="http://www.w3.org/1999/02/22-rdf-syntax-ns#"
   xmlns:svg="http://www.w3.org/2000/svg"
   xmlns="http://www.w3.org/2000/svg"
   version="1.1"
   id="svg2"
   viewBox="0 0 407.48029 407.48023"
   height="115mm"
   width="115mm">
  <defs
     id="defs4" />
  <metadata
     id="metadata7">
    <rdf:RDF>
      <cc:Work
         rdf:about="">
        <dc:format>image/svg+xml</dc:format>
        <dc:type
           rdf:resource="http://purl.org/dc/dcmitype/StillImage" />
        <dc:title></dc:title>
      </cc:Work>
    </rdf:RDF>
  </metadata>
  <g
     transform="translate(-171.42772,-177.73943)"
     id="layer1">
    <text
       id="text4143"
       y="521.59644"
       x="240.80887"
       style="font-style:normal;font-variant:normal;font-weight:normal;font-stretch:normal;font-size:437.02746582px;line-height:125%;font-family:'DejaVu Sans';-inkscape-font-specification:'DejaVu Sans';letter-spacing:0px;word-spacing:0px;fill:#777777;fill-opacity:1;stroke:none;stroke-width:1px;stroke-linecap:butt;stroke-linejoin:miter;stroke-opacity:1"
       xml:space="preserve"><tspan
         id="tspan4145"
         y="521.59644"
         x="240.80887"><tspan
           id="tspan4147"
           style="font-style:normal;font-variant:normal;font-weight:normal;font-stretch:normal;font-family:'DejaVu Sans';-inkscape-font-specification:'DejaVu Sans';fill:#777777;fill-opacity:1"
           y="521.59644"
           x="240.80887">$</tspan></tspan></text>
    <rect
       y="88.076492"
       x="310"
       height="131.42856"
       width="138.57143"
       id="rect4192"
       style="opacity:1;fill:#ffffff;fill-opacity:1;stroke:none;stroke-width:5.5630002;stroke-miterlimit:4;stroke-dasharray:none;stroke-opacity:1" />
    <rect
       y="542.93359"
       x="299.42856"
       height="78.571426"
       width="157.14285"
       id="rect4194"
       style="opacity:1;fill:#ffffff;fill-opacity:1;stroke:none;stroke-width:5.5630002;stroke-miterlimit:4;stroke-dasharray:none;stroke-opacity:1" />
    <rect
       y="444.36218"
       x="245.14285"
       height="92.85714"
       width="48.57143"
       id="rect4199"
       style="opacity:1;fill:#ffffff;fill-opacity:1;stroke:none;stroke-width:5.5630002;stroke-miterlimit:4;stroke-dasharray:none;stroke-opacity:1" />
    <rect
       y="200.07648"
       x="455.14285"
       height="137.14285"
       width="34.285713"
       id="rect4201"
       style="opacity:1;fill:#ffffff;fill-opacity:1;stroke:none;stroke-width:5.5630002;stroke-miterlimit:4;stroke-dasharray:none;stroke-opacity:1" />
  </g>
  <g
     transform="translate(-171.42772,-177.73943)"
     style="display:inline"
     id="layer2">
    <path
       id="path4166"
       d="m 375.14201,182.93276 a 200,200 0 0 0 -200,200 200,200 0 0 0 200,200 200,200 0 0 0 200,-200 200,200 0 0 0 -200,-200 z m 0,30 a 170,170 0 0 1 110.85743,41.22461 L 240.67131,486.78041 a 170,170 0 0 1 -35.5293,-103.84765 170,170 0 0 1 170,-170 z m 136,68.28906 a 170,170 0 0 1 34,101.71094 170,170 0 0 1 -170,170 170,170 0 0 1 -108.89257,-39.50195 L 511.14201,281.22182 Z"
       style="opacity:1;fill:#ff1d1d;fill-opacity:1;stroke:none;stroke-width:5.5630002;stroke-miterlimit:4;stroke-dasharray:none;stroke-opacity:1" />
  </g>
</svg>
